:FULLY-SPECIFIED
:FORCE-ALL-JOINTS-BE-3DOF
:DEGREES
170
root 6.49692 16.0668 -25.663 4.22616 31.6286 1.69088
lfemur -27.392 33.2786 -17.8754
ltibia 43.9309 -0 0
lfoot -8.71851 10.69 0.110398
ltoes 15.8586 -0 0
rfemur -22.6226 -3.83362 -5.69306
rtibia 64.5315 -0 0
rfoot 8.07463 -26.9602 -0.283875
rtoes 45.9276 -0 0
lowerback 1.48533 -5.38674 -1.51735
upperback 0.0459831 -7.21485 -2.6703
thorax -0.91948 -3.60672 -1.72755
lowerneck -10.3318 -7.87384 -1.75246
upperneck 1.91027 -10.5572 5.73
head 2.81272 -5.08679 1.58464
lclavicle -9.17699e-14 2.65046e-15 0
lhumerus -54.5238 -40.0436 120.481
lradius 56.0185 -0 0
lwrist 16.7179 0 0
lhand 40.1438 30.8265 0.00148806
lfingers 7.12502 0 0
lthumb 64.0948 45.3527 -0.00318242
rclavicle -9.17699e-14 2.65046e-15 0
rhumerus -52.3412 -12.7249 -83.303
rradius 94.844 -0 0
rwrist -5.355 0 0
rhand -42.9634 -54.2413 1.04903
rfingers 7.12502 0 0
rthumb -15.0413 -85.72 1.1435
171
root 6.43394 16.0419 -25.6445 4.61557 32.7563 1.89997
lfemur -28.0263 34.0205 -18.0458
ltibia 45.1405 -0 0
lfoot -9.37347 10.3375 0.191503
ltoes 17.8009 -0 0
rfemur -23.5971 -4.08459 -6.20201
rtibia 66.5094 -0 0
rfoot 7.54144 -27.8288 -0.510539
rtoes 48.5975 -0 0
lowerback 1.37107 -5.62392 -1.57343
upperback 0.0244519 -7.52503 -2.93849
thorax -0.896856 -3.76507 -1.9756
lowerneck -11.0023 -8.1993 -1.76699
upperneck 2.08444 -11.001 6.0401
head 3.00133 -5.29871 1.66206
lclavicle -8.48432e-14 2.12037e-15 0
lhumerus -58.0503 -39.1414 123.433
lradius 58.5846 -0 0
lwrist 17.7506 0 0
lhand 42.3193 32.5635 -0.00238719
lfingers 7.12502 0 0
lthumb 66.9085 47.5033 -0.00750115
rclavicle -8.48432e-14 2.12037e-15 0
rhumerus -55.0651 -11.1673 -85.737
rradius 98.533 -0 0
rwrist -6.01008 0 0
rhand -42.5763 -54.8992 1.80683
rfingers 7.12502 0 0
rthumb -14.1414 -87.8877 1.95797
172
root 6.37096 16.017 -25.6261 4.90145 33.443 2.04134
lfemur -28.3726 34.44 -18.0703
ltibia 45.8129 -0 0
lfoot -9.76685 10.0532 0.245649
ltoes 19.1627 -0 0
rfemur -24.0219 -4.1059 -6.60058
rtibia 67.4663 -0 0
rfoot 7.06612 -28.473 -0.687859
rtoes 50.4574 -0 0
lowerback 1.24187 -5.7642 -1.58685
upperback -0.00301707 -7.70748 -3.12174
thorax -0.869562 -3.85835 -2.16316
lowerneck -11.4272 -8.40849 -1.7714
upperneck 2.20631 -11.2869 6.23616
head 3.12481 -5.43526 1.70984
lclavicle -7.79165e-14 1.59027e-15 0
lhumerus -60.278 -38.6149 125.106
lradius 60.1542 -0 0
lwrist 18.4265 0 0
lhand 43.7138 33.7024 -0.0112705
lfingers 7.12502 0 0
lthumb 68.6338 48.8356 -0.0129354
rclavicle -7.79165e-14 1.59027e-15 0
rhumerus -56.7832 -10.0559 -87.2078
rradius 100.756 -0 0
rwrist -6.45091 0 0
rhand -42.1155 -55.1611 2.33017
rfingers 7.12502 0 0
rthumb -13.422 -89.2239 2.51963
173
root 6.30797 15.9921 -25.6076 5.08756 33.7401 2.11768
lfemur -28.4647 34.5828 -17.9677
ltibia 46.023 -0 0
lfoot -9.91679 9.84578 0.275544
ltoes 19.9752 -0 0
rfemur -23.9537 -3.91796 -6.89128
rtibia 67.5763 -0 0
rfoot 6.66044 -28.918 -0.822715
rtoes 51.6156 -0 0
lowerback 1.10311 -5.81586 -1.56164
upperback -0.0352394 -7.77349 -3.22431
thorax -0.839325 -3.89222 -2.29191
lowerneck -11.6242 -8.51161 -1.76737
upperneck 2.27849 -11.4289 6.32657
head 3.18744 -5.50293 1.73029
lclavicle -7.09898e-14 1.06018e-15 0
lhumerus -61.3693 -38.3966 125.893
lradius 60.8837 -0 0
lwrist 18.7736 0 0
lhand 44.4207 34.3033 -0.0246066
lfingers 7.12502 0 0
lthumb 69.4628 49.4589 -0.019426
rclavicle -7.09898e-14 1.06018e-15 0
rhumerus -57.6415 -9.31686 -87.9125
rradius 101.859 -0 0
rwrist -6.68828 0 0
rhand -41.6029 -55.0865 2.66293
rfingers 7.12502 0 0
rthumb -12.89 -89.8999 2.8838
174
root 6.24499 15.9672 -25.5892 5.18252 33.6987 2.13556
lfemur -28.3354 34.4877 -17.7565
ltibia 45.8364 -0 0
lfoot -9.85203 9.71243 0.284233
ltoes 20.2951 -0 0
rfemur -23.4607 -3.55056 -7.08113
rtibia 66.9704 -0 0
rfoot 6.32557 -29.1867 -0.921283
rtoes 52.1742 -0 0
lowerback 0.959124 -5.78958 -1.50316
upperback -0.0709669 -7.73726 -3.2544
thorax -0.807356 -3.87391 -2.36674
lowerneck -11.6191 -8.52094 -1.75606
upperneck 2.30584 -11.4439 6.3232
head 3.19583 -5.50966 1.72651
lclavicle -6.40631e-14 5.30088e-16 0
lhumerus -61.4849 -38.4358 126.001
lradius 60.9035 -0 0
lwrist 18.83 0 0
lhand 44.5335 34.4337 -0.0417322
lfingers 7.12502 0 0
lthumb 69.5436 49.4745 -0.0268872
rclavicle -6.40631e-14 5.30088e-16 0
rhumerus -57.7659 -8.88547 -87.9839
rradius 102.065 -0 0
rwrist -6.74339 0 0
rhand -41.0522 -54.7247 2.83967
rfingers 7.12502 0 0
rthumb -12.5342 -90.0296 3.09022
175
root 6.18201 15.9424 -25.5707 5.19848 33.3691 2.1041
lfemur -28.0169 34.1895 -17.4544
ltibia 45.3123 -0 0
lfoot -9.60814 9.64277 0.275016
ltoes 20.1946 -0 0
rfemur -22.6177 -3.03914 -7.18051
rtibia 65.7512 -0 0
rfoot 6.05508 -29.3 -0.989306
rtoes 52.2266 -0 0
lowerback 0.813361 -5.69757 -1.4176
upperback -0.108966 -7.61485 -3.22281
thorax -0.774471 -3.81168 -2.39481
lowerneck -11.4431 -8.45014 -1.73826
upperneck 2.2948 -11.3504 6.24023
head 3.15817 -5.46433 1.70216
lclavicle -5.71364e-14 -4.28571e-21 0
lhumerus -60.7743 -38.6961 125.54
lradius 60.3226 -0 0
lwrist 18.6399 0 0
lhand 44.1428 34.1645 -0.0619254
lfingers 7.12502 0 0
lthumb 68.9922 48.9757 -0.035209
rclavicle -5.71364e-14 -4.28571e-21 0
rhumerus -57.266 -8.70652 -87.5137
rradius 101.516 -0 0
rwrist -6.6443 0 0
rhand -40.4717 -54.1191 2.88863
rfingers 7.12502 0 0
rthumb -12.3304 -89.6893 3.16809
176
root 6.11903 15.9175 -25.5523 5.14978 32.8015 2.03391
lfemur -27.5411 33.7206 -17.0787
ltibia 44.5065 -0 0
lfoot -9.22441 9.62188 0.251386
ltoes 19.7553 -0 0
rfemur -21.503 -2.42153 -7.20226
rtibia 64.0083 -0 0
rfoot 5.83763 -29.2786 -1.03234
rtoes 51.8598 -0 0
lowerback 0.668456 -5.55287 -1.31149
upperback -0.148085 -7.42337 -3.14192
thorax -0.741203 -3.71431 -2.38468
lowerneck -11.1305 -8.31375 -1.71458
upperneck 2.25276 -11.1682 6.0932
head 3.08354 -5.37641 1.66121
lclavicle -5.02097e-14 -5.30097e-16 0
lhumerus -59.3795 -39.1502 124.56
lradius 59.2384 -0 0
lwrist 18.2514 0 0
lhand 43.3375 33.5684 -0.0844361
lfingers 7.12502 0 0
lthumb 67.9054 48.0511 -0.0442557
rclavicle -5.02097e-14 -5.30097e-16 0
rhumerus -56.2419 -8.73109 -86.5701
rradius 100.308 -0 0
rwrist -6.42304 0 0
rhand -39.8664 -53.3096 2.83416
rfingers 7.12502 0 0
rthumb -12.2463 -88.9328 3.14019
177
root 6.05605 15.8926 -25.5338 5.05196 32.0461 1.93616
lfemur -26.9399 33.1128 -16.646
ltibia 43.4736 -0 0
lfoot -8.74135 9.6328 0.216947
ltoes 19.0627 -0 0
rfemur -20.1955 -1.73542 -7.16083
rtibia 61.8303 -0 0
rfoot 5.6592 -29.1432 -1.05596
rtoes 51.158 -0 0
lowerback 0.526333 -5.36883 -1.19138
upperback -0.187311 -7.18025 -3.02476
thorax -0.707894 -3.59075 -2.34565
lowerneck -10.7167 -8.12669 -1.68557
upperneck 2.18754 -10.9172 5.89817
head 2.98144 -5.25564 1.60776
lclavicle -4.3283e-14 -1.06019e-15 0
lhumerus -57.443 -39.7729 123.083
lradius 57.7445 -0 0
lwrist 17.7138 0 0
lhand 42.2063 32.7194 -0.108512
lfingers 7.12502 0 0
lthumb 66.3735 46.7886 -0.0538666
rclavicle -4.3283e-14 -1.06019e-15 0
rhumerus -54.7913 -8.91319 -85.2109
rradius 98.5155 -0 0
rwrist -6.11324 0 0
rhand -39.2399 -52.3357 2.69861
rfingers 7.12502 0 0
rthumb -12.2456 -87.8018 3.02607
178
root 5.99307 15.8677 -25.5154 4.92079 31.1538 1.82176
lfemur -26.2454 32.3982 -16.1725
ltibia 42.2699 -0 0
lfoot -8.19862 9.65864 0.175363
ltoes 18.2033 -0 0
rfemur -18.7721 -1.01621 -7.07172
rtibia 59.3139 -0 0
rfoot 5.5048 -28.9154 -1.06599
rtoes 50.2063 -0 0
lowerback 0.388273 -5.15857 -1.06342
upperback -0.225817 -6.90266 -2.88428
thorax -0.67476 -3.44982 -2.2872
lowerneck -10.237 -7.90391 -1.6518
upperneck 2.107 -10.6176 5.67108
head 2.86126 -5.1118 1.54587
lclavicle -3.63563e-14 -1.59028e-15 0
lhumerus -55.1143 -40.5361 121.117
lradius 55.9384 -0 0
lwrist 17.0768 0 0
lhand 40.8401 31.6922 -0.133431
lfingers 7.12502 0 0
lthumb 64.4905 45.2785 -0.0638615
rclavicle -3.63563e-14 -1.59028e-15 0
rhumerus -53.0154 -9.20665 -83.495
rradius 96.2137 -0 0
rwrist -5.74827 0 0
rhand -38.5954 -51.2385 2.50375
rfingers 7.12502 0 0
rthumb -12.2914 -86.336 2.84469
179
root 5.93009 15.8428 -25.4969 4.7717 30.1759 1.70092
lfemur -25.49 31.6102 -15.6736
ltibia 40.9538 -0 0
lfoot -7.63356 9.68405 0.130302
ltoes 17.261 -0 0
rfemur -17.3053 -0.295428 -6.95101
rtibia 56.5699 -0 0
rfoot 5.35981 -28.6183 -1.06859
rtoes 49.0931 -0 0
lowerback 0.254958 -4.9347 -0.933223
upperback -0.262993 -6.60711 -2.73289
thorax -0.641949 -3.29993 -2.21861
lowerneck -9.72493 -7.66011 -1.61391
upperneck 2.01869 -10.2895 5.42723
head 2.73202 -4.95445 1.47943
lclavicle -2.94296e-14 -2.12037e-15 0
lhumerus -52.552 -41.4023 118.677
lradius 53.9258 -0 0
lwrist 16.3884 0 0
lhand 39.3321 30.5621 -0.158536
lfingers 7.12502 0 0
lthumb 62.3613 43.6151 -0.0740521
rclavicle -2.94296e-14 -2.12037e-15 0
rhumerus -51.0228 -9.56319 -81.4922
rradius 93.4953 -0 0
rwrist -5.35976 0 0
rhand -37.9371 -50.0614 2.27177
rfingers 7.12502 0 0
rthumb -12.3489 -84.5809 2.6165
180
root 5.8671 15.8179 -25.4785 4.61934 29.1643 1.58272
lfemur -24.706 30.7842 -15.1642
ltibia 39.5866 -0 0
lfoot -7.08013 9.69625 0.0854093
ltoes 16.3149 -0 0
rfemur -15.861 0.40026 -6.81513
rtibia 53.7244 -0 0
rfoot 5.21075 -28.277 -1.07043
rtoes 47.9124 -0 0
lowerback 0.126501 -4.70899 -0.80567
upperback -0.298476 -6.30908 -2.58201
thorax -0.609572 -3.14896 -2.14867
lowerneck -9.21187 -7.40948 -1.57269
upperneck 1.92971 -9.95198 5.18094
head 2.60214 -4.79283 1.41208
lclavicle -2.25029e-14 -2.65047e-15 0
lhumerus -49.9214 -42.3213 115.811
lradius 51.8226 -0 0
lwrist 15.6944 0 0
lhand 37.7776 29.4035 -0.183279
lfingers 7.12502 0 0
lthumb 60.1064 41.8965 -0.0842597
rclavicle -2.25029e-14 -2.65047e-15 0
rhumerus -48.93 -9.93164 -79.2909
rradius 90.4888 -0 0
rwrist -4.97672 0 0
rhand -37.2713 -48.8513 2.02589
rfingers 7.12502 0 0
rthumb -12.3867 -82.5952 2.365
181
root 5.80412 15.793 -25.46 4.47738 28.1702 1.47505
lfemur -23.9258 29.9572 -14.6581
ltibia 38.2317 -0 0
lfoot -6.5684 9.68542 0.0442787
ltoes 15.4379 -0 0
rfemur -14.4972 1.04957 -6.68072
rtibia 50.9149 -0 0
rfoot 5.04561 -27.9185 -1.07873
rtoes 46.7634 -0 0
lowerback 0.0024473 -4.49229 -0.684826
upperback -0.332156 -6.02288 -2.44203
thorax -0.577719 -3.00415 -2.08557
lowerneck -8.72641 -7.16561 -1.52898
upperneck 1.84659 -9.62374 4.94539
head 2.47931 -4.63575 1.34718
lclavicle -1.55762e-14 -3.18056e-15 0
lhumerus -47.3881 -43.2302 112.626
lradius 49.7533 -0 0
lwrist 15.0378 0 0
lhand 36.2722 28.2893 -0.207255
lfingers 7.12502 0 0
lthumb 57.8615 40.2233 -0.0943335
rclavicle -1.55762e-14 -3.18056e-15 0
rhumerus -46.8603 -10.2589 -77.004
rradius 87.3693 -0 0
rwrist -4.62508 0 0
rhand -36.6064 -47.6585 1.79056
rfingers 7.12502 0 0
rthumb -12.3778 -80.4572 2.11762
